<svg id="Layer_1" data-name="Layer 1" xmlns="http://www.w3.org/2000/svg" viewBox="0 0 400 400"><path d="M69.18,247.51c14.34,0,18-8.1,18-16.86,0-10.29-6.85-16.42-20.34-16.42H40.71v33.28Zm-8.35-63c16.48,0,21-5.26,21-16.64,0-9.64-4.93-15.33-18.2-15.33H40.71v32ZM2.18,122.72h70c25.48,0,51,12.48,51,42.25,0,14.67-11.35,30.65-28,34.15,20.55,4.17,33.39,15.33,33.39,36.57,0,34.15-25.47,41.59-52.66,41.59H2.18Z"/><path d="M144.74,122.72h42.17c22.26,42.47,39.17,72.46,50.51,98.95-2.14-34.59-1.5-66.33-1.71-98.95h36.17V277.28H229.72c-17.77-33.71-42.39-79-50.52-98.95,1.93,35.24,1.29,66.33,1.71,98.95H144.74Z"/><polygon points="292.01 122.72 399.03 122.72 399.03 152.49 330.54 152.49 330.54 186.21 377.84 186.21 377.84 215.98 330.54 215.98 330.54 277.28 292.01 277.28 292.01 122.72"/></svg>
