<svg version="1.1" id="Layer_1" xmlns="http://www.w3.org/2000/svg" xmlns:xlink="http://www.w3.org/1999/xlink" x="50" y="50"
	 viewBox="-50 -50 575 400" xml:space="preserve">
<g>
	<g>
		<g>
			<path d="M67.13,125.12c14.34,0,17.98-8.1,17.98-16.86c0-10.29-6.85-16.42-20.33-16.42H38.67v33.28H67.13z M58.79,62.07
				c16.48,0,20.98-5.25,20.98-16.64c0-9.63-4.92-15.33-18.2-15.33h-22.9v31.96H58.79z M0.14,0.33h69.99
				c25.47,0,50.94,12.48,50.94,42.25c0,14.67-11.34,30.65-28.04,34.15c20.55,4.16,33.39,15.33,33.39,36.56
				c0,34.15-25.47,41.6-52.66,41.6H0.14V0.33z"/>
			<path d="M142.69,0.33h42.17c22.26,42.47,39.17,72.47,50.52,98.96c-2.14-34.59-1.5-66.34-1.71-98.96h36.17v154.57h-42.17
				c-17.77-33.71-42.38-79.03-50.52-98.96c1.93,35.25,1.28,66.34,1.71,98.96h-36.17V0.33z"/>
		</g>
		<polygon points="289.96,0.33 396.99,0.33 396.99,30.1 328.49,30.1 328.49,63.82 375.8,63.82 375.8,93.59 328.49,93.59
			328.49,154.89 289.96,154.89 		"/>
	</g>
	<g>
		<path d="M8.66,243.87H0.14l1.04-5.93h8.22c-0.21-1.77-0.42-4.68-0.42-6.86c0-7.8,1.87-17.16,14.87-17.16
			c3.95,0,6.97,0.52,9.36,1.56l-2.7,6.55c-1.35-0.73-3.64-1.25-5.62-1.25c-4.78,0-7.28,3.64-7.28,10.82c0,2.29,0.31,5.1,0.52,6.34
			h9.57l-1.04,5.93H17.4l-7.9,45.24H0.76L8.66,243.87z"/>
		<path d="M28.01,268.83c0-17.16,9.57-32.34,27.46-32.34c12.9,0,19.86,9.05,19.86,21.53c0,17.16-9.67,32.66-27.56,32.66
			C34.98,290.67,28.01,281.31,28.01,268.83z M66.18,258.53c0-8.94-3.64-15.29-11.65-15.29c-11.34,0-17.37,12.48-17.37,25.17
			c0,8.84,3.74,15.5,11.65,15.5C60.15,283.91,66.18,270.6,66.18,258.53z"/>
		<path d="M89.68,237.94h7.59l-1.14,11.13c3.95-7.8,11.54-12.58,19.97-12.58l-1.56,9.15c-0.94-0.21-2.08-0.31-3.22-0.31
			c-6.86,0-15.08,4.89-17.26,17.26l-4.68,26.52h-8.74L89.68,237.94z"/>
		<path d="M200.13,273.62c-7.38,11.54-17.06,17.06-31.2,17.06c-18.51,0-27.67-13.21-27.67-30.47c0-25.27,14.35-46.07,39.63-46.07
			c12.06,0,20.59,5.1,25.27,15.29l-9.15,4.47c-2.5-7.28-8.42-11.65-17.47-11.65c-18.1,0-28.19,17.78-28.19,36.61
			c0,13.21,5.93,23.71,18.62,23.71c8.63,0,16.64-4.06,21.42-13.42L200.13,273.62z"/>
		<path d="M219.99,215.68h8.63l-5.51,31.72c2.91-5.62,9.46-10.92,17.68-10.92c8.94,0,12.79,5.51,12.79,13.1
			c0,1.98-0.31,4.99-0.94,8.63l-5.51,30.89h-8.63l5.2-29.64c0.52-2.71,0.83-5.3,0.83-6.55c0-5.62-2.81-8.74-7.9-8.74
			c-7.7,0-14.25,6.97-16.12,17.89l-4.78,27.04h-8.74L219.99,215.68z"/>
		<path d="M269.08,237.94h8.74l-9.05,51.17h-8.74L269.08,237.94z M272.61,218.08h8.63l-1.56,8.63h-8.63L272.61,218.08z"/>
		<path d="M294.55,215.68h8.63l-12.9,73.43h-8.74L294.55,215.68z"/>
		<path d="M338.34,279.13c-3.95,6.97-8.94,11.23-17.26,11.23c-10.61,0-16.33-8.42-16.33-20.7c0-19.45,10.5-33.07,24.75-33.07
			c8.53,0,12.9,4.68,14.14,10.09l5.41-30.99h8.74l-13,73.43h-8.22L338.34,279.13z M340.73,262.38c0.42-2.71,0.52-5.3,0.52-6.76
			c0-7.07-3.64-11.96-10.19-11.96c-11.44,0-17.16,12.48-17.16,24.75c0,8.74,3.64,14.98,10.82,14.98c8.32,0,13.94-9.15,15.5-17.99
			L340.73,262.38z"/>
		<path d="M366.62,237.94h7.59l-1.14,11.13c3.95-7.8,11.54-12.58,19.97-12.58l-1.56,9.15c-0.94-0.21-2.08-0.31-3.22-0.31
			c-6.86,0-15.08,4.89-17.26,17.26l-4.68,26.52h-8.74L366.62,237.94z"/>
		<path d="M401.36,265.5c-0.1,1.04-0.1,1.98-0.1,2.91c0,9.78,4.16,15.6,12.38,15.6c5.62,0,10.19-2.71,14.14-8.53l6.86,3.43
			c-4.47,6.55-11.02,11.75-21.42,11.75c-14.25,0-20.8-9.36-20.8-21.95c0-15.91,8.53-32.24,27.25-32.24c12.58,0,18.2,8.22,18.2,19.34
			c0,4.06-0.52,8.11-0.94,9.67H401.36z M401.98,260.3h27.14c0.31-1.25,0.42-3.43,0.42-5.2c0-6.03-3.02-12.06-10.61-12.06
			C409.78,243.04,403.96,250.53,401.98,260.3z"/>
		<path d="M452.32,237.94h7.59l-0.83,9.57c3.85-6.24,9.78-11.02,17.99-11.02c8.94,0,12.79,5.51,12.79,13.1
			c0,1.98-0.31,4.99-0.94,8.63l-5.51,30.89h-8.63l5.2-29.64c0.52-2.71,0.83-5.3,0.83-6.55c0-5.62-2.81-8.74-7.9-8.74
			c-7.7,0-14.25,6.97-16.12,17.89l-4.79,27.04h-8.74L452.32,237.94z"/>
	</g>
</g>
</svg>
