<?xml version="1.0" encoding="UTF-8"?>
<svg id="Layer_1" data-name="Layer 1" xmlns="http://www.w3.org/2000/svg" viewBox="0 0 215.5 79.08">
  <defs>
    <style>
      .cls-1 {
        fill: #274951;
      }

      .cls-2 {
        fill: none;
      }
    </style>
  </defs>
  <path class="cls-1" d="M163.35.98c-3.94,1.28-3.84,1.28,5.9,1.87,5.41.3,12.4,1.28,15.54,2.27l5.61,1.87v8.78c0,10.06,1.18,9.37-10.33,6.21-6.59-1.77-18.3-2.07-21.25-.59-4.33,2.37-.69,6.21,6.98,7.4,9.35,1.48,19.18,5.23,22.33,8.58,4.43,4.73,5.51,7.49,5.51,13.61,0,14.4-9.94,22.19-29.81,23.37l-9.35.59,4.43,2.07c3.64,1.58,6.49,1.97,15.74,2.07,11.02,0,11.61-.1,18.2-3.35,8.52-4.14,15.39-11.06,19.48-19.62,2.85-6.02,3.15-7.4,3.15-16.47s-.3-10.45-3.15-16.47c-4.01-8.53-10.82-15.42-19.28-19.52-5.9-2.86-7.77-3.25-16.23-3.55-5.99-.3-11.01.09-13.47.88h0ZM28.57,4.04C17.65,6.8,8.7,13.7,3.88,23.07c-2.66,5.32-2.85,6.51-2.85,16.57s.2,11.34,2.66,15.78c7.18,13.51,22.14,20.21,42.11,18.83,4.06-.26,8.11-.79,12.1-1.58l3.64-1.08v-8.88c0-7.99-.2-8.87-1.67-8.38-10.72,3.25-23.41,3.45-29.42.59-2.17-1.1-4.11-2.6-5.71-4.44-3.94-6.02-3.94-17.55.1-23.07,1.8-2,3.93-3.67,6.3-4.93,3.64-2.07,5.51-2.47,12.2-2.37,4.24.07,8.46.6,12.59,1.58l4.72,1.48-.3-8.97-.3-9.07-4.92-1.08c-6.49-1.59-20.36-1.49-26.56,0ZM71.37,38.65v35.01h20.66v-23.18l11.61,11.64,11.51,11.54h27.45l-17.22-17.26c-9.44-9.57-17.22-17.65-17.41-18.14-.2-.49,6.79-8.18,15.54-17.16,8.75-8.98,15.74-16.47,15.74-16.86s-5.8-.59-12.99-.59h-12.99l-10.62,11.04-10.53,11.14v-11.14l-.1-11.04h-20.65v35Z"/>
  <path class="cls-1" d="M133.93,32.34c-.89,4.83-.69,13.12.49,16.47.79,2.27,2.07,3.45,5.12,4.54,7.67,2.76,12,3.55,19.87,3.55,8.66,0,12.59-1.38,13.08-4.54.39-2.56-1.97-3.55-14.26-6.21-4.05-.82-8.04-1.98-11.9-3.45-3.64-1.87-8.85-7.79-9.64-10.95-.79-3.36-1.97-3.06-2.76.59h0ZM1.97,27.31s-4.39,12.47.13,24.31"/>
  <path class="cls-2" d="M-5.61-19.99h226.77v119.06H-5.61V-19.99Z"/>
</svg>